<?xml version="1.0" encoding="utf-8"?>
<svg viewBox="0 0 500 500" xmlns="http://www.w3.org/2000/svg">
  <defs>
    <linearGradient gradientUnits="userSpaceOnUse" x1="397.493" y1="4620.664" x2="397.493" y2="8181.207" id="gradient-2">
      <stop offset="0" style="stop-color: rgb(9, 148, 255);"/>
      <stop offset="1" style="stop-color: rgb(22, 212, 255);"/>
    </linearGradient>
    <linearGradient gradientUnits="userSpaceOnUse" x1="165" y1="0" x2="165" y2="330" id="gradient-1">
      <stop offset="0" style="stop-color: rgb(22, 212, 255);"/>
      <stop offset="1" style="stop-color: rgb(9, 148, 255);"/>
    </linearGradient>
    <linearGradient gradientUnits="userSpaceOnUse" x1="165" y1="0" x2="165" y2="330" id="gradient-0">
      <stop offset="0" style="stop-color: rgb(22, 212, 255);"/>
      <stop offset="1" style="stop-color: rgb(9, 148, 255);"/>
    </linearGradient>
  </defs>
  <g transform="matrix(0.10000000149011612, 0, 0, -0.10000000149011612, 210.2506612190204, 890.0935884476013)" fill="#000000" stroke="none">
    <path d="M 329.399 8153.75 C 188.852 8081.39 -26.56 7985.929 -162.932 7935.555 C -319.342 7878.223 -477.144 7834.25 -641.904 7802.245 C -675.579 7795.565 -853.976 7765.786 -1015.953 7739.347 C -1054.916 7733.224 -1090.261 7725.988 -1094.436 7723.761 L -1102.507 7719.587 L -1102.507 7663.368 C -1102.507 7565.403 -1085.808 7182.17 -1073.284 6987.909 C -1068.553 6917.775 -1053.524 6732.142 -1050.741 6713.774 C -1043.505 6661.73 -1010.108 6503.928 -988.122 6416.539 C -939.417 6223.113 -896.001 6092.864 -819.744 5911.684 C -780.502 5818.45 -743.765 5749.429 -657.767 5607.491 C -594.313 5503.403 -548.113 5435.217 -470.743 5331.964 C -372.778 5201.715 -263.124 5088.165 -104.209 4953.184 C 75.858 4799.835 100.349 4780.632 179.946 4733.319 C 208.055 4716.342 242.288 4695.191 256.481 4686.006 C 286.26 4666.246 365.579 4626.726 383.947 4622.273 C 396.193 4619.212 398.141 4619.769 424.302 4630.623 C 475.511 4652.331 518.649 4674.039 546.48 4692.408 C 561.788 4702.148 597.69 4724.413 626.355 4741.668 C 695.655 4783.137 742.689 4819.874 899.934 4954.576 C 1005.414 5045.026 1017.938 5056.994 1098.091 5140.765 C 1203.014 5250.419 1221.104 5272.127 1314.338 5400.985 C 1389.482 5504.795 1432.063 5571.589 1515.278 5714.641 C 1584.856 5834.871 1651.65 5988.219 1714.548 6172.461 C 1762.139 6312.451 1828.099 6593.822 1845.91 6733.256 C 1865.114 6882.43 1887.379 7286.814 1896.563 7650.566 C 1898.233 7718.752 1897.954 7722.091 1893.223 7723.761 C 1876.803 7728.493 1756.851 7750.201 1666.679 7764.395 C 1543.666 7784.155 1423.992 7805.585 1361.929 7818.943 C 1183.811 7857.907 1010.702 7912.734 833.14 7986.486 C 723.764 8031.851 579.878 8097.532 472.45 8151.246 C 393.688 8190.766 401.203 8190.766 329.399 8153.75 Z" style="stroke-miterlimit: 1; paint-order: fill; fill: rgb(255, 255, 255); stroke: url('#gradient-2'); stroke-width: 150px;"/>
  </g>
  <g id="XMLID_486_" transform="matrix(0.5434780120849608, 0, 0, 0.5434780120849608, 160.3261299808317, 160.32612998083164)">
    <path id="XMLID_487_" d="M165,330c63.411,0,115-51.589,115-115c0-29.771-11.373-56.936-30-77.379V85c0-46.869-38.131-85-85-85 S80.001,38.131,80.001,85v52.619C61.373,158.064,50,185.229,50,215C50,278.411,101.589,330,165,330z M180,219.986V240 c0,8.284-6.716,15-15,15s-15-6.716-15-15v-20.014c-6.068-4.565-10-11.824-10-19.986c0-13.785,11.215-25,25-25s25,11.215,25,25 C190,208.162,186.068,215.421,180,219.986z M110.001,85c0-30.327,24.673-55,54.999-55c30.327,0,55,24.673,55,55v29.029 C203.652,105.088,184.91,100,165,100c-19.909,0-38.651,5.088-54.999,14.028V85z" style="fill: url('#gradient-1'); fill-opacity: 0.94; stroke: url('#gradient-0');"/>
  </g>
</svg>